<svg width="280" height="280" viewBox="0 0 280 280" fill="none" xmlns="http://www.w3.org/2000/svg">
<path fill="#8A288F" d="M268.685 112.122C262.887 106.534 259.28 98.6881 259.28 90C259.28 81.3118 262.887 73.466 268.685 67.8781C275.688 60.6739 280 50.8406 280 40C280 17.9086 262.091 0 240 0C217.909 0 200 17.9086 200 40C200 50.8401 204.312 60.6731 211.314 67.8772C217.113 73.4651 220.72 81.3113 220.72 90C220.72 106.966 206.966 120.72 190 120.72C181.312 120.72 173.466 117.113 167.878 111.315C160.674 104.312 150.841 100 140 100V180C150.841 180 160.674 175.688 167.878 168.685C173.466 162.887 181.312 159.28 190 159.28C206.966 159.28 220.72 173.034 220.72 190C220.72 198.689 217.113 206.535 211.314 212.123C204.312 219.327 200 229.16 200 240C200 262.091 217.909 280 240 280C262.091 280 280 262.091 280 240C280 229.16 275.688 219.326 268.685 212.122C262.887 206.534 259.28 198.688 259.28 190C259.28 181.312 262.887 173.466 268.685 167.878C275.688 160.674 280 150.841 280 140C280 129.159 275.688 119.326 268.685 112.122Z"/>
<path fill="#2592D0" d="M67.8782 11.3154C60.674 4.31245 50.8406 0 40 0C17.9086 0 0 17.9086 0 40C0 50.8401 4.31205 60.6731 11.3144 67.8772C17.1129 73.4651 20.72 81.3113 20.72 90C20.72 98.6886 17.1129 106.535 11.3146 112.123C4.3121 119.327 0 129.16 0 140C0 150.84 4.3121 160.673 11.3146 167.877C17.1129 173.465 20.72 181.311 20.72 190C20.72 198.689 17.1128 206.535 11.3143 212.123C4.312 219.327 0 229.16 0 240C0 262.091 17.9086 280 40 280C62.0914 280 80 262.091 80 240C80 229.159 75.6876 219.326 68.6848 212.122C62.8868 206.534 59.28 198.688 59.28 190C59.28 173.034 73.0338 159.28 90 159.28C98.6886 159.28 106.535 162.887 112.123 168.685C119.327 175.688 129.16 180 140 180V100C129.16 100 119.327 104.312 112.123 111.315C106.535 117.113 98.6886 120.72 90 120.72C73.0338 120.72 59.28 106.966 59.28 90C59.28 73.0338 73.0338 59.28 90 59.28C98.6886 59.28 106.535 62.8871 112.123 68.6855C119.327 75.6879 129.16 80 140 80C162.091 80 180 62.0914 180 40C180 17.9086 162.091 0 140 0C129.16 0 119.327 4.31212 112.123 11.3146C106.535 17.1129 98.6886 20.72 90 20.72C81.3118 20.72 73.466 17.1133 67.8782 11.3154Z"/>
<circle cx="140" cy="140" r="40" fill="url(#gradient)"/>
  <defs>
  <linearGradient id="gradient" x1="100" y1="139.5" x2="180" y2="140" gradientUnits="userSpaceOnUse">
    <stop offset="0.12" stop-color="#2592D0"/>
    <stop offset="0.42" stop-color="#5B5AAD"/>
    <stop offset="0.58" stop-color="#5B5AAD"/>
    <stop offset="0.88" stop-color="#8A288F"/>
  </linearGradient>
  </defs>
</svg>
