<svg height="600" viewBox="0 0 600 600" width="600" xmlns="http://www.w3.org/2000/svg" xmlns:xlink="http://www.w3.org/1999/xlink">
  <linearGradient id="a" x1="50%" y1="50%" x2="50.15%" y2="50.27%">
    <stop offset="0" stop-color="#3B82F6"/>
    <stop offset="1" stop-color="#7C3AED"/>
  </linearGradient>
  <path d="m262 10.2883732c23.76-13.72000002 53.24-13.71566166 77 0l193 110.9999998c23.76 13.72 38 38 38 66v224c0 28-14.24 52.28-38 66l-193 111c-23.756246 13.716276-54.243754 13.716276-78 0l-193-111c-23.7562459-13.716276-38-38.570519-38-66v-224c0-28 14.2437541-52.284031 38-66zm5.62963 43.4757965-165.25926 94.5555553c-20.2368017 11.683974-32.37037 32.370371-32.37037 56.222223v190.814814c0 23.365854 12.1335683 44.537988 32.37037 56.222223l164.407408 94.555555c20.236802 11.684235 46.207642 11.684235 66.444444 0l164.407408-94.555555c20.24-11.687408 32.37037-32.370371 32.37037-56.222223v-190.814814c0-23.851852-12.13037-44.534815-32.37037-56.222223l-164.407408-94.5555553c-20.24-11.6837117-45.352592-11.6874074-65.592592 0zm162.37037 270.5242033h-90v85c0 13.807119-11.192881 25-25 25s-25-11.192881-25-25v-220c0-13.807119 11.192881-25 25-25s25 11.192881 25 25v85h90v-85c0-13.807119 11.192881-25 25-25s25 11.192881 25 25v220c0 13.807119-11.192881 25-25 25s-25-11.192881-25-25zm-260-50h67.5c12.426407 0 22.5 10.073593 22.5 22.5v5c0 12.426407-10.073593 22.5-22.5 22.5h-67.5v85c0 13.807119-11.192881 25-25 25s-25-11.192881-25-25v-222.5c0-12.426407 10.073593-22.5 22.5-22.5h115c12.426407 0 22.5 10.073593 22.5 22.5v5c0 12.426407-10.073593 22.5-22.5 22.5h-87.5z" fill="url(#a)"/>
</svg>